<?xml version="1.0" encoding="utf-8"?>
<!-- Generator: Adobe Illustrator 17.1.0, SVG Export Plug-In . SVG Version: 6.00 Build 0)  -->
<!DOCTYPE svg PUBLIC "-//W3C//DTD SVG 1.1//EN" "http://www.w3.org/Graphics/SVG/1.1/DTD/svg11.dtd">
<svg version="1.1" id="Layer_1" xmlns="http://www.w3.org/2000/svg" xmlns:xlink="http://www.w3.org/1999/xlink" x="0px" y="0px"
	 viewBox="0 0 875 465" enable-background="new 0 0 875 465" xml:space="preserve">
<rect x="-0.5" y="0.5" stroke="#070707" stroke-miterlimit="10" width="875" height="465"/>
<g>
	<rect x="12.5" y="13.5" fill="#FFFFFF" stroke="#000000" stroke-miterlimit="10" width="36" height="19"/>
	<rect x="12.5" y="65.5" fill="#FFFFFF" stroke="#000000" stroke-miterlimit="10" width="36" height="19"/>
	<rect x="12.5" y="170.5" fill="#FFFFFF" stroke="#000000" stroke-miterlimit="10" width="36" height="19"/>
	<rect x="12.5" y="118.5" fill="#FFFFFF" stroke="#000000" stroke-miterlimit="10" width="36" height="19"/>
	<rect x="12.5" y="222.5" fill="#FFFFFF" stroke="#000000" stroke-miterlimit="10" width="36" height="19"/>
	<rect x="12.5" y="274.5" fill="#FFFFFF" stroke="#000000" stroke-miterlimit="10" width="36" height="19"/>
	<rect x="12.5" y="327.5" fill="#FFFFFF" stroke="#000000" stroke-miterlimit="10" width="36" height="19"/>
	<rect x="12.5" y="379.5" fill="#FFFFFF" stroke="#000000" stroke-miterlimit="10" width="36" height="19"/>
	<rect x="12.5" y="431.5" fill="#FFFFFF" stroke="#000000" stroke-miterlimit="10" width="36" height="19"/>
</g>
<g>
	<rect x="815.5" y="13.5" fill="#FFFFFF" stroke="#000000" stroke-miterlimit="10" width="36" height="19"/>
	<rect x="815.5" y="65.5" fill="#FFFFFF" stroke="#000000" stroke-miterlimit="10" width="36" height="19"/>
	<rect x="815.5" y="170.5" fill="#FFFFFF" stroke="#000000" stroke-miterlimit="10" width="36" height="19"/>
	<rect x="815.5" y="118.5" fill="#FFFFFF" stroke="#000000" stroke-miterlimit="10" width="36" height="19"/>
	<rect x="815.5" y="222.5" fill="#FFFFFF" stroke="#000000" stroke-miterlimit="10" width="36" height="19"/>
	<rect x="815.5" y="274.5" fill="#FFFFFF" stroke="#000000" stroke-miterlimit="10" width="36" height="19"/>
	<rect x="815.5" y="327.5" fill="#FFFFFF" stroke="#000000" stroke-miterlimit="10" width="36" height="19"/>
	<rect x="815.5" y="379.5" fill="#FFFFFF" stroke="#000000" stroke-miterlimit="10" width="36" height="19"/>
	<rect x="815.5" y="431.5" fill="#FFFFFF" stroke="#000000" stroke-miterlimit="10" width="36" height="19"/>
</g>
<rect x="71.5" y="30.5" fill="#FFFFFF" stroke="#000000" stroke-miterlimit="10" width="728" height="401"/>
</svg>
